<?xml version="1.0" encoding="UTF-8"?>
<svg width="16px" height="13px" viewBox="0 0 16 13" version="1.1" xmlns="http://www.w3.org/2000/svg" xmlns:xlink="http://www.w3.org/1999/xlink">
    <!-- Generator: Sketch 63.1 (92452) - https://sketch.com -->
    <title>Artboard</title>
    <desc>Created with Sketch.</desc>
    <g id="Artboard" stroke="none" stroke-width="1" fill="none" fill-rule="evenodd">
        <g id="speaker-(1)" fill="#fff" fill-rule="nonzero">
            <path d="M13.9064062,1.3965468 L13.2498438,2.06984565 C14.416375,3.20363711 15.0588125,4.71995567 15.0588125,6.33951067 C15.0588125,7.95295074 14.4205312,9.46521346 13.2615313,10.597757 L13.919875,11.2692463 C15.26125,9.95849589 16,8.20771921 16,6.33951067 C16,4.46418883 15.2565,2.70876355 13.9064062,1.3965468 Z" id="Path"></path>
            <path d="M12.484625,2.63906568 L11.8484063,3.33155172 C12.6923437,4.10434319 13.1764062,5.20072742 13.1764062,6.33954187 C13.1764062,7.47233498 12.6965937,8.56472578 11.86,9.33667488 L12.4988437,10.0267274 C13.5275625,9.07747619 14.1175937,7.73353038 14.1175937,6.33957307 C14.1175937,4.93812808 13.5224062,3.58937767 12.484625,2.63906568 Z" id="Path"></path>
            <path d="M11.0392187,3.87624959 L10.4546562,4.61269458 C10.9880937,5.03475041 11.2940312,5.66412151 11.2940312,6.33947947 C11.2940312,7.00919048 10.9923125,7.63525452 10.46625,8.05715435 L11.0556563,8.78973071 C11.80525,8.18853202 12.2352187,7.29546962 12.2352187,6.33947947 C12.2352187,5.37540887 11.7993125,4.47760427 11.0392187,3.87624959 Z" id="Path"></path>
            <rect id="Rectangle" x="0" y="3.66990148" width="2.9478125" height="5.28146962"></rect>
            <polygon id="Path" points="9.26271875 0.0303875205 3.8890625 3.30291133 3.8890625 9.32344663 9.268 12.6362791"></polygon>
        </g>
    </g>
</svg>